<svg xmlns="http://www.w3.org/2000/svg" viewBox="0 0 1100 520" width="1100" height="520" font-family="'Segoe UI', system-ui, sans-serif">
  <defs>
    <marker id="arr" markerWidth="9" markerHeight="9" refX="8" refY="4.5" orient="auto">
      <path d="M0,1 L0,8 L8,4.5 z" fill="#4b5563"/>
    </marker>
    <filter id="glow" x="-50%" y="-50%" width="200%" height="200%">
      <feGaussianBlur stdDeviation="3" result="blur"/>
      <feMerge><feMergeNode in="blur"/><feMergeNode in="SourceGraphic"/></feMerge>
    </filter>
    <linearGradient id="topgrad" x1="0" y1="0" x2="0" y2="1">
      <stop offset="0%" stop-color="#1e1b4b" stop-opacity="0.5"/>
      <stop offset="100%" stop-color="#080a10" stop-opacity="0"/>
    </linearGradient>
  </defs>

  <!-- Background -->
  <rect width="1100" height="520" fill="#080a10"/>
  <rect width="1100" height="200" fill="url(#topgrad)"/>

  <!-- Title -->
  <text x="550" y="32" text-anchor="middle" fill="#f8fafc" font-size="19" font-weight="800" letter-spacing="0.3">CleanStack — System Architecture</text>
  <text x="550" y="52" text-anchor="middle" fill="#475569" font-size="10.5">Vercel · Amazon Aurora PostgreSQL · AWS Lambda · S3 · SQS · SNS · Amazon Bedrock · EventBridge · Clerk</text>

  <!-- Flow connector line behind cards -->
  <line x1="100" y1="160" x2="1000" y2="160" stroke="#1e293b" stroke-width="2" stroke-dasharray="6,4"/>

  <!-- ═══════════════════════════
       CARD 1 — UPLOAD
  ═══════════════════════════ -->
  <rect x="16" y="72" width="158" height="340" rx="12" fill="#0d1f3c" stroke="#1d4ed8" stroke-width="1.5"/>
  <circle cx="95" cy="116" r="26" fill="#1d4ed8" filter="url(#glow)"/>
  <text x="95" y="112" text-anchor="middle" fill="#93c5fd" font-size="9" font-weight="700">STEP</text>
  <text x="95" y="127" text-anchor="middle" fill="#fff" font-size="18" font-weight="800">1</text>
  <text x="95" y="158" text-anchor="middle" fill="#bfdbfe" font-size="13.5" font-weight="700">UPLOAD</text>
  <line x1="28" y1="168" x2="162" y2="168" stroke="#1e3a5f" stroke-width="1"/>
  <text x="95" y="188" text-anchor="middle" fill="#94a3b8" font-size="9.5">User drags file to dashboard</text>
  <text x="95" y="202" text-anchor="middle" fill="#94a3b8" font-size="9.5">Presigned S3 PUT upload</text>
  <text x="95" y="216" text-anchor="middle" fill="#94a3b8" font-size="9.5">Rate: 20 uploads/hr/user</text>

  <rect x="24" y="230" width="55" height="18" rx="9" fill="#1e3a8a"/>
  <text x="51" y="243" text-anchor="middle" fill="#93c5fd" font-size="8.5" font-weight="600">Next.js</text>
  <rect x="85" y="230" width="62" height="18" rx="9" fill="#1e1040"/>
  <text x="116" y="243" text-anchor="middle" fill="#a78bfa" font-size="8.5" font-weight="600">Clerk Auth</text>

  <rect x="24" y="254" width="40" height="18" rx="9" fill="#14532d"/>
  <text x="44" y="267" text-anchor="middle" fill="#86efac" font-size="8.5" font-weight="600">S3 Raw</text>
  <rect x="70" y="254" width="50" height="18" rx="9" fill="#14532d"/>
  <text x="95" y="267" text-anchor="middle" fill="#86efac" font-size="8.5" font-weight="600">SSE-KMS</text>
  <rect x="126" y="254" width="32" height="18" rx="9" fill="#422006"/>
  <text x="142" y="267" text-anchor="middle" fill="#fbbf24" font-size="8.5" font-weight="600">KMS</text>

  <rect x="24" y="278" width="65" height="18" rx="9" fill="#1a2744"/>
  <text x="56" y="291" text-anchor="middle" fill="#67e8f9" font-size="8.5" font-weight="600">Upstash Redis</text>
  <rect x="95" y="278" width="63" height="18" rx="9" fill="#1a0a30"/>
  <text x="126" y="291" text-anchor="middle" fill="#c084fc" font-size="8.5" font-weight="600">Sentry</text>

  <line x1="28" y1="308" x2="162" y2="308" stroke="#1e3a5f" stroke-width="0.75" stroke-dasharray="3,3"/>
  <text x="95" y="324" text-anchor="middle" fill="#475569" font-size="8">CSV · Excel · PDF</text>
  <text x="95" y="336" text-anchor="middle" fill="#475569" font-size="8">DOCX · JSON · XML</text>
  <text x="95" y="348" text-anchor="middle" fill="#475569" font-size="8">Up to 100 MB</text>

  <line x1="178" y1="160" x2="196" y2="160" stroke="#4b5563" stroke-width="2" marker-end="url(#arr)"/>

  <!-- ═══════════════════════════
       CARD 2 — PROFILE
  ═══════════════════════════ -->
  <rect x="200" y="72" width="158" height="340" rx="12" fill="#0a1e0a" stroke="#15803d" stroke-width="1.5"/>
  <circle cx="279" cy="116" r="26" fill="#15803d" filter="url(#glow)"/>
  <text x="279" y="112" text-anchor="middle" fill="#86efac" font-size="9" font-weight="700">STEP</text>
  <text x="279" y="127" text-anchor="middle" fill="#fff" font-size="18" font-weight="800">2</text>
  <text x="279" y="158" text-anchor="middle" fill="#bbf7d0" font-size="13.5" font-weight="700">PROFILE</text>
  <line x1="212" y1="168" x2="346" y2="168" stroke="#14532d" stroke-width="1"/>
  <text x="279" y="188" text-anchor="middle" fill="#94a3b8" font-size="9.5">S3 PUT triggers Lambda</text>
  <text x="279" y="202" text-anchor="middle" fill="#94a3b8" font-size="9.5">Detects nulls, dupes, PII</text>
  <text x="279" y="216" text-anchor="middle" fill="#94a3b8" font-size="9.5">Quality score 0–100</text>

  <rect x="208" y="230" width="82" height="18" rx="9" fill="#1c2e1c"/>
  <text x="249" y="243" text-anchor="middle" fill="#4ade80" font-size="8.5" font-weight="600">λ Profiler (Py)</text>
  <rect x="296" y="230" width="50" height="18" rx="9" fill="#1c2e1c"/>
  <text x="321" y="243" text-anchor="middle" fill="#4ade80" font-size="8.5" font-weight="600">S3 trig.</text>

  <rect x="208" y="254" width="64" height="18" rx="9" fill="#1a1040"/>
  <text x="240" y="267" text-anchor="middle" fill="#c084fc" font-size="8.5" font-weight="600">Aurora PG</text>
  <rect x="278" y="254" width="68" height="18" rx="9" fill="#0f2918"/>
  <text x="312" y="267" text-anchor="middle" fill="#86efac" font-size="8.5" font-weight="600">RDS Data API</text>

  <rect x="208" y="278" width="72" height="18" rx="9" fill="#1e3a8a"/>
  <text x="244" y="291" text-anchor="middle" fill="#93c5fd" font-size="8.5" font-weight="600">Webhook→Next</text>
  <rect x="286" y="278" width="60" height="18" rx="9" fill="#1c2e1c"/>
  <text x="316" y="291" text-anchor="middle" fill="#4ade80" font-size="8.5" font-weight="600">9 formats</text>

  <line x1="212" y1="308" x2="346" y2="308" stroke="#14532d" stroke-width="0.75" stroke-dasharray="3,3"/>
  <text x="279" y="324" text-anchor="middle" fill="#475569" font-size="8">Python 3.12 · pandas</text>
  <text x="279" y="336" text-anchor="middle" fill="#475569" font-size="8">Outliers · Encoding</text>
  <text x="279" y="348" text-anchor="middle" fill="#475569" font-size="8">PII detection</text>

  <line x1="362" y1="160" x2="380" y2="160" stroke="#4b5563" stroke-width="2" marker-end="url(#arr)"/>

  <!-- ═══════════════════════════
       CARD 3 — AI RULES
  ═══════════════════════════ -->
  <rect x="384" y="72" width="158" height="340" rx="12" fill="#110c30" stroke="#6d28d9" stroke-width="1.5"/>
  <circle cx="463" cy="116" r="26" fill="#6d28d9" filter="url(#glow)"/>
  <text x="463" y="112" text-anchor="middle" fill="#c4b5fd" font-size="9" font-weight="700">STEP</text>
  <text x="463" y="127" text-anchor="middle" fill="#fff" font-size="18" font-weight="800">3</text>
  <text x="463" y="158" text-anchor="middle" fill="#ddd6fe" font-size="13.5" font-weight="700">AI RULES</text>
  <line x1="396" y1="168" x2="530" y2="168" stroke="#2e1065" stroke-width="1"/>
  <text x="463" y="188" text-anchor="middle" fill="#94a3b8" font-size="9.5">Claude generates rules</text>
  <text x="463" y="202" text-anchor="middle" fill="#94a3b8" font-size="9.5">3 AI committee members vote</text>
  <text x="463" y="216" text-anchor="middle" fill="#94a3b8" font-size="9.5">Risk-tiered approval</text>

  <rect x="392" y="230" width="78" height="18" rx="9" fill="#2e1065"/>
  <text x="431" y="243" text-anchor="middle" fill="#c4b5fd" font-size="8.5" font-weight="600">Bedrock (Claude)</text>
  <rect x="476" y="230" width="50" height="18" rx="9" fill="#2e1065"/>
  <text x="501" y="243" text-anchor="middle" fill="#c4b5fd" font-size="8.5" font-weight="600">Sonnet 4.6</text>

  <rect x="392" y="254" width="68" height="18" rx="9" fill="#1a1a40"/>
  <text x="426" y="267" text-anchor="middle" fill="#a5b4fc" font-size="8.5" font-weight="600">AI Committee</text>
  <rect x="466" y="254" width="60" height="18" rx="9" fill="#1a1040"/>
  <text x="496" y="267" text-anchor="middle" fill="#c084fc" font-size="8.5" font-weight="600">3× parallel</text>

  <rect x="392" y="278" width="66" height="18" rx="9" fill="#1e3a8a"/>
  <text x="425" y="291" text-anchor="middle" fill="#93c5fd" font-size="8.5" font-weight="600">Chat Builder</text>
  <rect x="464" y="278" width="62" height="18" rx="9" fill="#1a1040"/>
  <text x="495" y="291" text-anchor="middle" fill="#c084fc" font-size="8.5" font-weight="600">SSE stream</text>

  <line x1="396" y1="308" x2="530" y2="308" stroke="#2e1065" stroke-width="0.75" stroke-dasharray="3,3"/>
  <text x="463" y="324" text-anchor="middle" fill="#475569" font-size="8">Safety Auditor</text>
  <text x="463" y="336" text-anchor="middle" fill="#475569" font-size="8">Statistician</text>
  <text x="463" y="348" text-anchor="middle" fill="#475569" font-size="8">Domain Validator</text>

  <line x1="546" y1="160" x2="564" y2="160" stroke="#4b5563" stroke-width="2" marker-end="url(#arr)"/>

  <!-- ═══════════════════════════
       CARD 4 — REVIEW
  ═══════════════════════════ -->
  <rect x="568" y="72" width="158" height="340" rx="12" fill="#1a1100" stroke="#b45309" stroke-width="1.5"/>
  <circle cx="647" cy="116" r="26" fill="#b45309" filter="url(#glow)"/>
  <text x="647" y="112" text-anchor="middle" fill="#fde68a" font-size="9" font-weight="700">STEP</text>
  <text x="647" y="127" text-anchor="middle" fill="#fff" font-size="18" font-weight="800">4</text>
  <text x="647" y="158" text-anchor="middle" fill="#fef3c7" font-size="13.5" font-weight="700">REVIEW</text>
  <line x1="580" y1="168" x2="714" y2="168" stroke="#451a03" stroke-width="1"/>
  <text x="647" y="188" text-anchor="middle" fill="#94a3b8" font-size="9.5">GitHub-style Data PR</text>
  <text x="647" y="202" text-anchor="middle" fill="#94a3b8" font-size="9.5">Human approves each rule</text>
  <text x="647" y="216" text-anchor="middle" fill="#94a3b8" font-size="9.5">Full audit trail logged</text>

  <rect x="576" y="230" width="64" height="18" rx="9" fill="#1a1040"/>
  <text x="608" y="243" text-anchor="middle" fill="#c084fc" font-size="8.5" font-weight="600">Aurora PG</text>
  <rect x="646" y="230" width="72" height="18" rx="9" fill="#1e3a8a"/>
  <text x="682" y="243" text-anchor="middle" fill="#93c5fd" font-size="8.5" font-weight="600">Next.js API</text>

  <rect x="576" y="254" width="68" height="18" rx="9" fill="#422006"/>
  <text x="610" y="267" text-anchor="middle" fill="#fbbf24" font-size="8.5" font-weight="600">CloudTrail</text>
  <rect x="650" y="254" width="66" height="18" rx="9" fill="#2e1065"/>
  <text x="683" y="267" text-anchor="middle" fill="#c4b5fd" font-size="8.5" font-weight="600">Vercel AI SDK</text>

  <rect x="576" y="278" width="72" height="18" rx="9" fill="#1a2028"/>
  <text x="612" y="291" text-anchor="middle" fill="#fbbf24" font-size="8.5" font-weight="600">EventBridge</text>
  <rect x="654" y="278" width="62" height="18" rx="9" fill="#1a2028"/>
  <text x="685" y="291" text-anchor="middle" fill="#fbbf24" font-size="8.5" font-weight="600">Reconciler</text>

  <line x1="580" y1="308" x2="714" y2="308" stroke="#451a03" stroke-width="0.75" stroke-dasharray="3,3"/>
  <text x="647" y="324" text-anchor="middle" fill="#475569" font-size="8">Per-rule decisions</text>
  <text x="647" y="336" text-anchor="middle" fill="#475569" font-size="8">AI reasoning shown</text>
  <text x="647" y="348" text-anchor="middle" fill="#475569" font-size="8">5-min stuck-run recovery</text>

  <line x1="730" y1="160" x2="748" y2="160" stroke="#4b5563" stroke-width="2" marker-end="url(#arr)"/>

  <!-- ═══════════════════════════
       CARD 5 — EXECUTE
  ═══════════════════════════ -->
  <rect x="752" y="72" width="158" height="340" rx="12" fill="#180808" stroke="#dc2626" stroke-width="1.5"/>
  <circle cx="831" cy="116" r="26" fill="#dc2626" filter="url(#glow)"/>
  <text x="831" y="112" text-anchor="middle" fill="#fca5a5" font-size="9" font-weight="700">STEP</text>
  <text x="831" y="127" text-anchor="middle" fill="#fff" font-size="18" font-weight="800">5</text>
  <text x="831" y="158" text-anchor="middle" fill="#fee2e2" font-size="13.5" font-weight="700">EXECUTE</text>
  <line x1="764" y1="168" x2="898" y2="168" stroke="#450a0a" stroke-width="1"/>
  <text x="831" y="188" text-anchor="middle" fill="#94a3b8" font-size="9.5">SQS triggers Lambda</text>
  <text x="831" y="202" text-anchor="middle" fill="#94a3b8" font-size="9.5">pandas applies transforms</text>
  <text x="831" y="216" text-anchor="middle" fill="#94a3b8" font-size="9.5">Auto-clean up to 3 passes</text>

  <rect x="760" y="230" width="54" height="18" rx="9" fill="#1a1640"/>
  <text x="787" y="243" text-anchor="middle" fill="#a5b4fc" font-size="8.5" font-weight="600">SQS</text>
  <rect x="820" y="230" width="86" height="18" rx="9" fill="#1c1c0a"/>
  <text x="863" y="243" text-anchor="middle" fill="#fde68a" font-size="8.5" font-weight="600">λ Executor (Py)</text>

  <rect x="760" y="254" width="66" height="18" rx="9" fill="#1a1040"/>
  <text x="793" y="267" text-anchor="middle" fill="#c084fc" font-size="8.5" font-weight="600">Aurora PG</text>
  <rect x="832" y="254" width="74" height="18" rx="9" fill="#14532d"/>
  <text x="869" y="267" text-anchor="middle" fill="#86efac" font-size="8.5" font-weight="600">S3 Processed</text>

  <rect x="760" y="278" width="70" height="18" rx="9" fill="#1a1640"/>
  <text x="795" y="291" text-anchor="middle" fill="#a5b4fc" font-size="8.5" font-weight="600">SNS drift alert</text>
  <rect x="836" y="278" width="70" height="18" rx="9" fill="#14532d"/>
  <text x="871" y="291" text-anchor="middle" fill="#86efac" font-size="8.5" font-weight="600">KMS encrypt</text>

  <line x1="764" y1="308" x2="898" y2="308" stroke="#450a0a" stroke-width="0.75" stroke-dasharray="3,3"/>
  <text x="831" y="324" text-anchor="middle" fill="#475569" font-size="8">20+ rule types</text>
  <text x="831" y="336" text-anchor="middle" fill="#475569" font-size="8">Schema drift detection</text>
  <text x="831" y="348" text-anchor="middle" fill="#475569" font-size="8">&lt;5% gain → stop</text>

  <line x1="914" y1="160" x2="932" y2="160" stroke="#4b5563" stroke-width="2" marker-end="url(#arr)"/>

  <!-- ═══════════════════════════
       CARD 6 — DELIVER
  ═══════════════════════════ -->
  <rect x="936" y="72" width="148" height="340" rx="12" fill="#041810" stroke="#059669" stroke-width="1.5"/>
  <circle cx="1010" cy="116" r="26" fill="#059669" filter="url(#glow)"/>
  <text x="1010" y="112" text-anchor="middle" fill="#6ee7b7" font-size="9" font-weight="700">STEP</text>
  <text x="1010" y="127" text-anchor="middle" fill="#fff" font-size="18" font-weight="800">6</text>
  <text x="1010" y="158" text-anchor="middle" fill="#d1fae5" font-size="13.5" font-weight="700">DELIVER</text>
  <line x1="948" y1="168" x2="1072" y2="168" stroke="#064e3b" stroke-width="1"/>
  <text x="1010" y="188" text-anchor="middle" fill="#94a3b8" font-size="9.5">Score before vs after</text>
  <text x="1010" y="202" text-anchor="middle" fill="#94a3b8" font-size="9.5">Download cleaned file</text>
  <text x="1010" y="216" text-anchor="middle" fill="#94a3b8" font-size="9.5">Slack drift alert fires</text>

  <rect x="944" y="230" width="74" height="18" rx="9" fill="#14532d"/>
  <text x="981" y="243" text-anchor="middle" fill="#86efac" font-size="8.5" font-weight="600">S3 presigned</text>
  <rect x="1024" y="230" width="52" height="18" rx="9" fill="#1a1640"/>
  <text x="1050" y="243" text-anchor="middle" fill="#a5b4fc" font-size="8.5" font-weight="600">SNS→Slack</text>

  <rect x="944" y="254" width="60" height="18" rx="9" fill="#14532d"/>
  <text x="974" y="267" text-anchor="middle" fill="#86efac" font-size="8.5" font-weight="600">JSONL export</text>
  <rect x="1010" y="254" width="66" height="18" rx="9" fill="#1a1640"/>
  <text x="1043" y="267" text-anchor="middle" fill="#a5b4fc" font-size="8.5" font-weight="600">Alpaca · Chat</text>

  <rect x="944" y="278" width="56" height="18" rx="9" fill="#1e1040"/>
  <text x="972" y="291" text-anchor="middle" fill="#c084fc" font-size="8.5" font-weight="600">λ Drift fn</text>
  <rect x="1006" y="278" width="68" height="18" rx="9" fill="#1e1040"/>
  <text x="1040" y="291" text-anchor="middle" fill="#c084fc" font-size="8.5" font-weight="600">Aurora write</text>

  <line x1="948" y1="308" x2="1072" y2="308" stroke="#064e3b" stroke-width="0.75" stroke-dasharray="3,3"/>
  <text x="1010" y="324" text-anchor="middle" fill="#34d399" font-size="8.5" font-weight="600">Avg +18.1 quality pts</text>
  <text x="1010" y="338" text-anchor="middle" fill="#475569" font-size="8">17 domains tested</text>
  <text x="1010" y="350" text-anchor="middle" fill="#475569" font-size="8">0 failures</text>

  <!-- ═══════════════════════════
       BOTTOM STRIP
  ═══════════════════════════ -->
  <rect x="16" y="432" width="1068" height="72" rx="10" fill="#0d111a" stroke="#1e293b" stroke-width="1"/>
  <text x="550" y="452" text-anchor="middle" fill="#374151" font-size="8.5" font-weight="700" letter-spacing="1">FULL TECH STACK</text>

  <rect x="28" y="458" width="72" height="16" rx="8" fill="#1e3a8a"/>
  <text x="64" y="470" text-anchor="middle" fill="#93c5fd" font-size="8" font-weight="600">Vercel / Next.js 15</text>
  <rect x="106" y="458" width="98" height="16" rx="8" fill="#1a1040"/>
  <text x="155" y="470" text-anchor="middle" fill="#c084fc" font-size="8" font-weight="600">Aurora PostgreSQL (RDS API)</text>
  <rect x="210" y="458" width="96" height="16" rx="8" fill="#1c1c0a"/>
  <text x="258" y="470" text-anchor="middle" fill="#fde68a" font-size="8" font-weight="600">Lambda Python 3.12 · pandas</text>
  <rect x="312" y="458" width="60" height="16" rx="8" fill="#14532d"/>
  <text x="342" y="470" text-anchor="middle" fill="#86efac" font-size="8" font-weight="600">S3 SSE-KMS</text>
  <rect x="378" y="458" width="54" height="16" rx="8" fill="#1a1640"/>
  <text x="405" y="470" text-anchor="middle" fill="#a5b4fc" font-size="8" font-weight="600">SQS · SNS</text>
  <rect x="438" y="458" width="96" height="16" rx="8" fill="#2e1065"/>
  <text x="486" y="470" text-anchor="middle" fill="#ddd6fe" font-size="8" font-weight="600">Bedrock · Claude Sonnet 4.6</text>
  <rect x="540" y="458" width="70" height="16" rx="8" fill="#1a2028"/>
  <text x="575" y="470" text-anchor="middle" fill="#fbbf24" font-size="8" font-weight="600">EventBridge cron</text>
  <rect x="616" y="458" width="44" height="16" rx="8" fill="#1e1040"/>
  <text x="638" y="470" text-anchor="middle" fill="#c084fc" font-size="8" font-weight="600">Clerk JWT</text>
  <rect x="666" y="458" width="38" height="16" rx="8" fill="#422006"/>
  <text x="685" y="470" text-anchor="middle" fill="#fbbf24" font-size="8" font-weight="600">KMS</text>
  <rect x="710" y="458" width="56" height="16" rx="8" fill="#422006"/>
  <text x="738" y="470" text-anchor="middle" fill="#fbbf24" font-size="8" font-weight="600">CloudTrail</text>
  <rect x="772" y="458" width="42" height="16" rx="8" fill="#1a0a30"/>
  <text x="793" y="470" text-anchor="middle" fill="#c084fc" font-size="8" font-weight="600">Sentry</text>
  <rect x="820" y="458" width="68" height="16" rx="8" fill="#1a2744"/>
  <text x="854" y="470" text-anchor="middle" fill="#67e8f9" font-size="8" font-weight="600">Upstash Redis</text>
  <rect x="894" y="458" width="60" height="16" rx="8" fill="#0a1e0a"/>
  <text x="924" y="470" text-anchor="middle" fill="#4ade80" font-size="8" font-weight="600">Vercel AI SDK</text>
  <rect x="960" y="458" width="60" height="16" rx="8" fill="#1e3a8a"/>
  <text x="990" y="470" text-anchor="middle" fill="#93c5fd" font-size="8" font-weight="600">TypeScript</text>

  <text x="550" y="494" text-anchor="middle" fill="#1f2937" font-size="8.5">GitHub: DHYEY166/CleanStack · Live: clean-stack-eta.vercel.app · B2B Monetizable · Free 50K · Pro 1M · Team 10M rows/month</text>
</svg>
