<svg xmlns="http://www.w3.org/2000/svg" viewBox="0 0 1080 480" width="1080" height="480" font-family="'Segoe UI', system-ui, sans-serif">
  <defs>
    <marker id="arr" markerWidth="8" markerHeight="8" refX="7" refY="4" orient="auto">
      <path d="M0,0 L0,8 L8,4 z" fill="#374151"/>
    </marker>
  </defs>

  <!-- Background -->
  <rect width="1080" height="480" fill="#0b0d14"/>

  <!-- Title -->
  <text x="540" y="34" text-anchor="middle" fill="#f1f5f9" font-size="18" font-weight="700">CleanStack — System Architecture</text>
  <text x="540" y="54" text-anchor="middle" fill="#4b5563" font-size="11">Vercel · Amazon Aurora · Lambda · S3 · SQS · SNS · Bedrock · EventBridge · Clerk · Sentry · Upstash Redis</text>

  <!-- ── CARD 1: UPLOAD ── -->
  <rect x="16" y="72" width="152" height="310" rx="12" fill="#0d1f3c" stroke="#2563eb" stroke-width="2"/>
  <circle cx="40" cy="98" r="16" fill="#2563eb"/>
  <text x="40" y="103" text-anchor="middle" fill="#fff" font-size="14" font-weight="800">1</text>
  <text x="108" y="98" text-anchor="middle" fill="#93c5fd" font-size="13" font-weight="700">UPLOAD</text>
  <line x1="16" y1="114" x2="168" y2="114" stroke="#1e3a5f" stroke-width="1"/>

  <text x="28" y="136" fill="#60a5fa" font-size="10" font-weight="600">Browser</text>
  <text x="28" y="152" fill="#94a3b8" font-size="9">User drags file</text>

  <text x="28" y="176" fill="#60a5fa" font-size="10" font-weight="600">Clerk Auth</text>
  <text x="28" y="192" fill="#94a3b8" font-size="9">JWT middleware</text>

  <text x="28" y="216" fill="#60a5fa" font-size="10" font-weight="600">Next.js /api/upload</text>
  <text x="28" y="232" fill="#94a3b8" font-size="9">Presigned S3 URL</text>

  <text x="28" y="256" fill="#60a5fa" font-size="10" font-weight="600">S3 Raw Bucket</text>
  <text x="28" y="272" fill="#94a3b8" font-size="9">SSE-KMS encrypted</text>
  <text x="28" y="284" fill="#94a3b8" font-size="9">CSV · PDF · Excel</text>
  <text x="28" y="296" fill="#94a3b8" font-size="9">JSON · XML · DOCX</text>

  <text x="28" y="320" fill="#60a5fa" font-size="10" font-weight="600">Upstash Redis</text>
  <text x="28" y="336" fill="#94a3b8" font-size="9">Rate limiting</text>
  <text x="28" y="348" fill="#94a3b8" font-size="9">20 uploads/hr</text>

  <text x="28" y="368" fill="#60a5fa" font-size="10" font-weight="600">Sentry</text>
  <text x="28" y="380" fill="#94a3b8" font-size="9">Error monitoring</text>

  <!-- ── ARROW 1→2 ── -->
  <line x1="172" y1="227" x2="186" y2="227" stroke="#374151" stroke-width="2" marker-end="url(#arr)"/>

  <!-- ── CARD 2: PROFILE ── -->
  <rect x="190" y="72" width="152" height="310" rx="12" fill="#0d1e0d" stroke="#16a34a" stroke-width="2"/>
  <circle cx="214" cy="98" r="16" fill="#16a34a"/>
  <text x="214" y="103" text-anchor="middle" fill="#fff" font-size="14" font-weight="800">2</text>
  <text x="280" y="98" text-anchor="middle" fill="#86efac" font-size="13" font-weight="700">PROFILE</text>
  <line x1="190" y1="114" x2="342" y2="114" stroke="#14532d" stroke-width="1"/>

  <text x="202" y="136" fill="#4ade80" font-size="10" font-weight="600">λ Profiler (Python)</text>
  <text x="202" y="152" fill="#94a3b8" font-size="9">S3 PUT trigger</text>

  <text x="202" y="176" fill="#4ade80" font-size="10" font-weight="600">9 File Formats</text>
  <text x="202" y="192" fill="#94a3b8" font-size="9">Tabular + Documents</text>

  <text x="202" y="216" fill="#4ade80" font-size="10" font-weight="600">Quality Score 0–100</text>
  <text x="202" y="232" fill="#94a3b8" font-size="9">Nulls · Duplicates</text>
  <text x="202" y="244" fill="#94a3b8" font-size="9">Outliers · PII · Encoding</text>

  <text x="202" y="268" fill="#4ade80" font-size="10" font-weight="600">Aurora PG Write</text>
  <text x="202" y="284" fill="#94a3b8" font-size="9">data_profiles table</text>
  <text x="202" y="296" fill="#94a3b8" font-size="9">column stats · samples</text>

  <text x="202" y="320" fill="#4ade80" font-size="10" font-weight="600">Webhook → Next.js</text>
  <text x="202" y="336" fill="#94a3b8" font-size="9">/webhooks/profile-done</text>
  <text x="202" y="348" fill="#94a3b8" font-size="9">triggers AI rule gen</text>

  <!-- ── ARROW 2→3 ── -->
  <line x1="346" y1="227" x2="360" y2="227" stroke="#374151" stroke-width="2" marker-end="url(#arr)"/>

  <!-- ── CARD 3: AI RULES ── -->
  <rect x="364" y="72" width="152" height="310" rx="12" fill="#12093a" stroke="#7c3aed" stroke-width="2"/>
  <circle cx="388" cy="98" r="16" fill="#7c3aed"/>
  <text x="388" y="103" text-anchor="middle" fill="#fff" font-size="14" font-weight="800">3</text>
  <text x="454" y="98" text-anchor="middle" fill="#c4b5fd" font-size="13" font-weight="700">AI RULES</text>
  <line x1="364" y1="114" x2="516" y2="114" stroke="#2e1065" stroke-width="1"/>

  <text x="376" y="136" fill="#a78bfa" font-size="10" font-weight="600">Amazon Bedrock</text>
  <text x="376" y="152" fill="#94a3b8" font-size="9">Claude Sonnet 4.6</text>

  <text x="376" y="176" fill="#a78bfa" font-size="10" font-weight="600">Rule Generation</text>
  <text x="376" y="192" fill="#94a3b8" font-size="9">Domain-aware rules</text>
  <text x="376" y="204" fill="#94a3b8" font-size="9">Structured JSON output</text>

  <text x="376" y="228" fill="#a78bfa" font-size="10" font-weight="600">AI Committee (3×)</text>
  <text x="376" y="244" fill="#94a3b8" font-size="9">Safety Auditor</text>
  <text x="376" y="256" fill="#94a3b8" font-size="9">Statistician</text>
  <text x="376" y="268" fill="#94a3b8" font-size="9">Domain Validator</text>

  <text x="376" y="292" fill="#a78bfa" font-size="10" font-weight="600">Risk Tiers</text>
  <text x="376" y="308" fill="#94a3b8" font-size="9">LOW: 1/3 votes</text>
  <text x="376" y="320" fill="#94a3b8" font-size="9">MEDIUM: 2/3 votes</text>
  <text x="376" y="332" fill="#94a3b8" font-size="9">HIGH: unanimous</text>

  <text x="376" y="356" fill="#a78bfa" font-size="10" font-weight="600">Chat Builder</text>
  <text x="376" y="372" fill="#94a3b8" font-size="9">SSE streaming</text>

  <!-- ── ARROW 3→4 ── -->
  <line x1="520" y1="227" x2="534" y2="227" stroke="#374151" stroke-width="2" marker-end="url(#arr)"/>

  <!-- ── CARD 4: REVIEW ── -->
  <rect x="538" y="72" width="152" height="310" rx="12" fill="#1a1008" stroke="#d97706" stroke-width="2"/>
  <circle cx="562" cy="98" r="16" fill="#d97706"/>
  <text x="562" y="103" text-anchor="middle" fill="#fff" font-size="14" font-weight="800">4</text>
  <text x="628" y="98" text-anchor="middle" fill="#fcd34d" font-size="13" font-weight="700">REVIEW</text>
  <line x1="538" y1="114" x2="690" y2="114" stroke="#451a03" stroke-width="1"/>

  <text x="550" y="136" fill="#fbbf24" font-size="10" font-weight="600">Data PR (GitHub-style)</text>
  <text x="550" y="152" fill="#94a3b8" font-size="9">Human reviews rules</text>

  <text x="550" y="176" fill="#fbbf24" font-size="10" font-weight="600">Approve / Reject</text>
  <text x="550" y="192" fill="#94a3b8" font-size="9">Per-rule decisions</text>
  <text x="550" y="204" fill="#94a3b8" font-size="9">AI reasoning shown</text>

  <text x="550" y="228" fill="#fbbf24" font-size="10" font-weight="600">Aurora PG Update</text>
  <text x="550" y="244" fill="#94a3b8" font-size="9">transform_rules table</text>
  <text x="550" y="256" fill="#94a3b8" font-size="9">status → approved</text>

  <text x="550" y="280" fill="#fbbf24" font-size="10" font-weight="600">Audit Trail</text>
  <text x="550" y="296" fill="#94a3b8" font-size="9">Every decision logged</text>
  <text x="550" y="308" fill="#94a3b8" font-size="9">CloudTrail + Aurora</text>

  <text x="550" y="332" fill="#fbbf24" font-size="10" font-weight="600">EventBridge</text>
  <text x="550" y="348" fill="#94a3b8" font-size="9">5-min reconciler</text>
  <text x="550" y="360" fill="#94a3b8" font-size="9">recovers stuck runs</text>

  <!-- ── ARROW 4→5 ── -->
  <line x1="694" y1="227" x2="708" y2="227" stroke="#374151" stroke-width="2" marker-end="url(#arr)"/>

  <!-- ── CARD 5: EXECUTE ── -->
  <rect x="712" y="72" width="152" height="310" rx="12" fill="#1a0a0a" stroke="#ef4444" stroke-width="2"/>
  <circle cx="736" cy="98" r="16" fill="#ef4444"/>
  <text x="736" y="103" text-anchor="middle" fill="#fff" font-size="14" font-weight="800">5</text>
  <text x="802" y="98" text-anchor="middle" fill="#fca5a5" font-size="13" font-weight="700">EXECUTE</text>
  <line x1="712" y1="114" x2="864" y2="114" stroke="#450a0a" stroke-width="1"/>

  <text x="724" y="136" fill="#f87171" font-size="10" font-weight="600">SQS Queue</text>
  <text x="724" y="152" fill="#94a3b8" font-size="9">Decoupled trigger</text>
  <text x="724" y="164" fill="#94a3b8" font-size="9">at-least-once delivery</text>

  <text x="724" y="188" fill="#f87171" font-size="10" font-weight="600">λ Executor (Python)</text>
  <text x="724" y="204" fill="#94a3b8" font-size="9">pandas transforms</text>
  <text x="724" y="216" fill="#94a3b8" font-size="9">20+ rule types</text>

  <text x="724" y="240" fill="#f87171" font-size="10" font-weight="600">S3 Processed</text>
  <text x="724" y="256" fill="#94a3b8" font-size="9">SSE-KMS encrypted</text>
  <text x="724" y="268" fill="#94a3b8" font-size="9">Presigned download</text>

  <text x="724" y="292" fill="#f87171" font-size="10" font-weight="600">Re-Profile</text>
  <text x="724" y="308" fill="#94a3b8" font-size="9">New quality score</text>
  <text x="724" y="320" fill="#94a3b8" font-size="9">Aurora PG write</text>

  <text x="724" y="344" fill="#f87171" font-size="10" font-weight="600">Auto-Clean</text>
  <text x="724" y="360" fill="#94a3b8" font-size="9">Up to 3 passes</text>
  <text x="724" y="372" fill="#94a3b8" font-size="9">&lt;5% gain → stop</text>

  <!-- ── ARROW 5→6 ── -->
  <line x1="868" y1="227" x2="882" y2="227" stroke="#374151" stroke-width="2" marker-end="url(#arr)"/>

  <!-- ── CARD 6: DELIVER ── -->
  <rect x="886" y="72" width="178" height="310" rx="12" fill="#0a1a10" stroke="#10b981" stroke-width="2"/>
  <circle cx="910" cy="98" r="16" fill="#10b981"/>
  <text x="910" y="103" text-anchor="middle" fill="#fff" font-size="14" font-weight="800">6</text>
  <text x="986" y="98" text-anchor="middle" fill="#6ee7b7" font-size="13" font-weight="700">DELIVER</text>
  <line x1="886" y1="114" x2="1064" y2="114" stroke="#064e3b" stroke-width="1"/>

  <text x="898" y="136" fill="#34d399" font-size="10" font-weight="600">Quality Score Delta</text>
  <text x="898" y="152" fill="#94a3b8" font-size="9">Before vs After</text>
  <text x="898" y="164" fill="#94a3b8" font-size="9">Avg +18.1 pts (17 domains)</text>

  <text x="898" y="188" fill="#34d399" font-size="10" font-weight="600">Download Clean File</text>
  <text x="898" y="204" fill="#94a3b8" font-size="9">S3 presigned GET</text>
  <text x="898" y="216" fill="#94a3b8" font-size="9">Original format preserved</text>

  <text x="898" y="240" fill="#34d399" font-size="10" font-weight="600">Training Export</text>
  <text x="898" y="256" fill="#94a3b8" font-size="9">JSONL · Alpaca · Chat</text>
  <text x="898" y="268" fill="#94a3b8" font-size="9">Fine-tuning ready</text>

  <text x="898" y="292" fill="#34d399" font-size="10" font-weight="600">SNS → λ Drift Alert</text>
  <text x="898" y="308" fill="#94a3b8" font-size="9">Schema change detected</text>
  <text x="898" y="320" fill="#94a3b8" font-size="9">→ Slack notification</text>

  <text x="898" y="344" fill="#34d399" font-size="10" font-weight="600">Billing</text>
  <text x="898" y="360" fill="#94a3b8" font-size="9">Free 50K · Pro 1M</text>
  <text x="898" y="372" fill="#94a3b8" font-size="9">Team 10M rows/mo</text>

  <!-- ── LEGEND ── -->
  <rect x="16" y="396" width="1048" height="70" rx="8" fill="#0f1117" stroke="#1f2937" stroke-width="1"/>
  <text x="40" y="418" fill="#6b7280" font-size="9" font-weight="700">INFRASTRUCTURE</text>
  <text x="40" y="438" fill="#3b82f6" font-size="9">■ Vercel (Next.js 15)</text>
  <text x="155" y="438" fill="#7c3aed" font-size="9">■ Aurora PG (RDS Data API)</text>
  <text x="310" y="438" fill="#f97316" font-size="9">■ Lambda (Python 3.12)</text>
  <text x="448" y="438" fill="#16a34a" font-size="9">■ S3 (SSE-KMS)</text>
  <text x="536" y="438" fill="#6366f1" font-size="9">■ SQS · SNS</text>
  <text x="612" y="438" fill="#8b5cf6" font-size="9">■ Bedrock / Claude Sonnet 4.6</text>
  <text x="766" y="438" fill="#d97706" font-size="9">■ EventBridge</text>
  <text x="844" y="438" fill="#6b7280" font-size="9">■ Clerk · Sentry · Upstash · KMS · CloudTrail</text>
  <text x="40" y="456" fill="#374151" font-size="9">Tested: 17 industry domains · B2B monetizable · Row-based metered billing · GitHub: DHYEY166/CleanStack · Live: clean-stack-eta.vercel.app</text>
</svg>
