<svg xmlns="http://www.w3.org/2000/svg" viewBox="0 0 1080 700" width="1080" height="700" font-family="system-ui, -apple-system, sans-serif">
  <rect width="1080" height="700" fill="#030712"/>

  <!-- Title -->
  <text x="540" y="34" text-anchor="middle" fill="#f9fafb" font-size="17" font-weight="700">CleanStack — System Architecture</text>
  <text x="540" y="52" text-anchor="middle" fill="#6b7280" font-size="10">Vercel (Next.js 15) · Aurora PostgreSQL · S3 · Lambda · SQS · SNS · EventBridge · Amazon Bedrock · Clerk</text>

  <!-- ── LANE BACKGROUNDS ── -->
  <!-- USER -->
  <rect x="28" y="64" width="1024" height="60" fill="#111827" rx="6"/>
  <!-- VERCEL + AUTH -->
  <rect x="28" y="132" width="1024" height="88" fill="#0f1729" rx="6"/>
  <!-- AWS COMPUTE -->
  <rect x="28" y="228" width="1024" height="80" fill="#111827" rx="6"/>
  <!-- AWS DATA -->
  <rect x="28" y="316" width="1024" height="80" fill="#0d1117" rx="6"/>
  <!-- AI -->
  <rect x="28" y="404" width="1024" height="64" fill="#0f1729" rx="6"/>
  <!-- AUTO-CLEAN / RECONCILE note row -->
  <rect x="28" y="476" width="1024" height="60" fill="#111827" rx="6"/>

  <!-- ── LANE LABELS ── -->
  <text x="16" y="100" text-anchor="middle" fill="#374151" font-size="9" font-weight="700" transform="rotate(-90,16,100)">BROWSER</text>
  <text x="16" y="182" text-anchor="middle" fill="#374151" font-size="9" font-weight="700" transform="rotate(-90,16,182)">VERCEL</text>
  <text x="16" y="270" text-anchor="middle" fill="#374151" font-size="9" font-weight="700" transform="rotate(-90,16,270)">λ COMPUTE</text>
  <text x="16" y="358" text-anchor="middle" fill="#374151" font-size="9" font-weight="700" transform="rotate(-90,16,358)">AWS DATA</text>
  <text x="16" y="438" text-anchor="middle" fill="#374151" font-size="9" font-weight="700" transform="rotate(-90,16,438)">AI</text>
  <text x="16" y="508" text-anchor="middle" fill="#374151" font-size="9" font-weight="700" transform="rotate(-90,16,508)">AUTO</text>

  <!-- ══════════════════════════════════════════════
       ROW 1 — BROWSER ACTIONS
  ══════════════════════════════════════════════ -->

  <!-- Browser -->
  <rect x="44" y="76" width="76" height="38" rx="7" fill="#1f2937" stroke="#374151" stroke-width="1.5"/>
  <text x="82" y="93" text-anchor="middle" fill="#d1d5db" font-size="10" font-weight="600">Browser</text>
  <text x="82" y="106" text-anchor="middle" fill="#9ca3af" font-size="8">User</text>

  <!-- Upload action -->
  <rect x="178" y="76" width="100" height="38" rx="7" fill="#1f2937" stroke="#374151" stroke-width="1.5"/>
  <text x="228" y="92" text-anchor="middle" fill="#d1d5db" font-size="10" font-weight="600">Upload File</text>
  <text x="228" y="105" text-anchor="middle" fill="#9ca3af" font-size="8">/pipelines/new</text>

  <!-- Data PR Review -->
  <rect x="430" y="76" width="114" height="38" rx="7" fill="#1f2937" stroke="#6366f1" stroke-width="1.5"/>
  <text x="487" y="92" text-anchor="middle" fill="#a5b4fc" font-size="10" font-weight="600">Data PR Review</text>
  <text x="487" y="105" text-anchor="middle" fill="#818cf8" font-size="8">Approve / Reject rules</text>

  <!-- Chat Builder -->
  <rect x="660" y="76" width="100" height="38" rx="7" fill="#1f2937" stroke="#0d9488" stroke-width="1.5"/>
  <text x="710" y="92" text-anchor="middle" fill="#5eead4" font-size="10" font-weight="600">Chat Builder</text>
  <text x="710" y="105" text-anchor="middle" fill="#2dd4bf" font-size="8">Streaming SSE UI</text>

  <!-- Run Detail -->
  <rect x="878" y="76" width="110" height="38" rx="7" fill="#1f2937" stroke="#374151" stroke-width="1.5"/>
  <text x="933" y="92" text-anchor="middle" fill="#d1d5db" font-size="10" font-weight="600">Run Detail</text>
  <text x="933" y="105" text-anchor="middle" fill="#9ca3af" font-size="8">Quality · Drift · Download</text>

  <!-- arrows row1 -->
  <line x1="120" y1="95" x2="174" y2="95" stroke="#374151" stroke-width="1.5" marker-end="url(#ag)"/>
  <line x1="278" y1="95" x2="426" y2="95" stroke="#374151" stroke-width="1.5" stroke-dasharray="4,3" marker-end="url(#ag)"/>
  <line x1="588" y1="91" x2="656" y2="91" stroke="#374151" stroke-width="1.5" stroke-dasharray="4,3" marker-end="url(#ag)"/>
  <line x1="760" y1="91" x2="874" y2="91" stroke="#374151" stroke-width="1.5" stroke-dasharray="4,3" marker-end="url(#ag)"/>

  <!-- ══════════════════════════════════════════════
       ROW 2 — VERCEL / NEXT.JS + CLERK
  ══════════════════════════════════════════════ -->

  <!-- Clerk -->
  <rect x="44" y="146" width="76" height="60" rx="7" fill="#1a1a2e" stroke="#a855f7" stroke-width="1.5"/>
  <text x="82" y="165" text-anchor="middle" fill="#e879f9" font-size="10" font-weight="600">Clerk</text>
  <text x="82" y="178" text-anchor="middle" fill="#d946ef" font-size="8">JWT Auth</text>
  <text x="82" y="191" text-anchor="middle" fill="#d946ef" font-size="8">Middleware</text>

  <!-- Next.js Upload API -->
  <rect x="158" y="146" width="118" height="60" rx="7" fill="#1e3a5f" stroke="#3b82f6" stroke-width="1.5"/>
  <text x="217" y="163" text-anchor="middle" fill="#93c5fd" font-size="10" font-weight="700">Next.js</text>
  <text x="217" y="176" text-anchor="middle" fill="#60a5fa" font-size="8">/api/upload</text>
  <text x="217" y="188" text-anchor="middle" fill="#60a5fa" font-size="8">/api/run-status</text>
  <text x="217" y="200" text-anchor="middle" fill="#60a5fa" font-size="8">/webhooks/profile-done</text>

  <!-- Next.js AI Routes -->
  <rect x="370" y="146" width="148" height="60" rx="7" fill="#1e3a5f" stroke="#3b82f6" stroke-width="1.5"/>
  <text x="444" y="163" text-anchor="middle" fill="#93c5fd" font-size="10" font-weight="700">Next.js AI Routes</text>
  <text x="444" y="176" text-anchor="middle" fill="#60a5fa" font-size="8">/api/suggest-transforms</text>
  <text x="444" y="188" text-anchor="middle" fill="#60a5fa" font-size="8">/api/auto-validate (AI committee)</text>
  <text x="444" y="200" text-anchor="middle" fill="#60a5fa" font-size="8">/api/approve-rules → SQS</text>

  <!-- Next.js Chat Builder -->
  <rect x="640" y="146" width="120" height="60" rx="7" fill="#1e3a5f" stroke="#0d9488" stroke-width="1.5"/>
  <text x="700" y="163" text-anchor="middle" fill="#5eead4" font-size="10" font-weight="700">Chat Builder</text>
  <text x="700" y="176" text-anchor="middle" fill="#2dd4bf" font-size="8">/api/chat-builder</text>
  <text x="700" y="188" text-anchor="middle" fill="#2dd4bf" font-size="8">Vercel AI SDK</text>
  <text x="700" y="200" text-anchor="middle" fill="#2dd4bf" font-size="8">Streaming SSE</text>

  <!-- Next.js Reconciler -->
  <rect x="878" y="146" width="110" height="60" rx="7" fill="#1e3a5f" stroke="#f59e0b" stroke-width="1.5"/>
  <text x="933" y="163" text-anchor="middle" fill="#fcd34d" font-size="10" font-weight="700">Reconciler</text>
  <text x="933" y="176" text-anchor="middle" fill="#fbbf24" font-size="8">/api/reconciler</text>
  <text x="933" y="188" text-anchor="middle" fill="#fbbf24" font-size="8">stuck run recovery</text>
  <text x="933" y="200" text-anchor="middle" fill="#fbbf24" font-size="8">→ re-queues SQS</text>

  <!-- Clerk covers all routes -->
  <line x1="120" y1="176" x2="154" y2="176" stroke="#a855f7" stroke-width="1" stroke-dasharray="3,2" marker-end="url(#ap)"/>

  <!-- Browser → Clerk -->
  <line x1="82" y1="114" x2="82" y2="142" stroke="#a855f7" stroke-width="1.5" marker-end="url(#ap)"/>
  <!-- Browser/Upload → Next.js upload -->
  <line x1="217" y1="114" x2="217" y2="142" stroke="#3b82f6" stroke-width="1.5" marker-end="url(#ab)"/>
  <!-- Browser/DataPR → Next.js AI Routes -->
  <line x1="487" y1="114" x2="487" y2="142" stroke="#3b82f6" stroke-width="1.5" marker-end="url(#ab)"/>
  <!-- Browser/Chat → Chat Builder route -->
  <line x1="710" y1="114" x2="710" y2="142" stroke="#0d9488" stroke-width="1.5" marker-end="url(#at)"/>

  <!-- ══════════════════════════════════════════════
       ROW 3 — LAMBDA COMPUTE
  ══════════════════════════════════════════════ -->

  <!-- Lambda Profiler -->
  <rect x="158" y="240" width="118" height="56" rx="7" fill="#2a1f0f" stroke="#d97706" stroke-width="1.5"/>
  <text x="217" y="258" text-anchor="middle" fill="#fcd34d" font-size="10" font-weight="600">λ Profiler</text>
  <text x="217" y="271" text-anchor="middle" fill="#fbbf24" font-size="8">S3 PUT trigger</text>
  <text x="217" y="284" text-anchor="middle" fill="#fbbf24" font-size="8">9 formats · quality score</text>

  <!-- Lambda Executor -->
  <rect x="580" y="240" width="118" height="56" rx="7" fill="#2a1f0f" stroke="#d97706" stroke-width="1.5"/>
  <text x="639" y="258" text-anchor="middle" fill="#fcd34d" font-size="10" font-weight="600">λ Executor</text>
  <text x="639" y="271" text-anchor="middle" fill="#fbbf24" font-size="8">SQS trigger · pandas</text>
  <text x="639" y="284" text-anchor="middle" fill="#fbbf24" font-size="8">transforms + drift check</text>

  <!-- Lambda Drift -->
  <rect x="820" y="240" width="108" height="56" rx="7" fill="#1c2a1c" stroke="#0d9488" stroke-width="1.5"/>
  <text x="874" y="258" text-anchor="middle" fill="#5eead4" font-size="10" font-weight="600">λ Drift Alert</text>
  <text x="874" y="271" text-anchor="middle" fill="#2dd4bf" font-size="8">SNS trigger</text>
  <text x="874" y="284" text-anchor="middle" fill="#2dd4bf" font-size="8">→ Slack webhook</text>

  <!-- Next.js → Lambda Profiler (webhook call down) -->
  <line x1="217" y1="206" x2="217" y2="236" stroke="#d97706" stroke-width="1.5" marker-end="url(#ao)"/>
  <!-- Lambda Executor ← SQS (from row 4) drawn below -->
  <!-- Lambda Drift ← SNS (from row 4) drawn below -->

  <!-- ══════════════════════════════════════════════
       ROW 4 — AWS DATA LAYER
  ══════════════════════════════════════════════ -->

  <!-- S3 Raw -->
  <rect x="44" y="328" width="90" height="56" rx="7" fill="#1c2a1c" stroke="#16a34a" stroke-width="1.5"/>
  <text x="89" y="348" text-anchor="middle" fill="#86efac" font-size="10" font-weight="600">S3 Raw</text>
  <text x="89" y="361" text-anchor="middle" fill="#4ade80" font-size="8">SSE-KMS</text>
  <text x="89" y="374" text-anchor="middle" fill="#4ade80" font-size="8">presigned PUT</text>

  <!-- Aurora PG -->
  <rect x="294" y="328" width="120" height="56" rx="7" fill="#1a1040" stroke="#7c3aed" stroke-width="1.5"/>
  <text x="354" y="348" text-anchor="middle" fill="#c4b5fd" font-size="10" font-weight="600">Aurora PG</text>
  <text x="354" y="361" text-anchor="middle" fill="#a78bfa" font-size="8">RDS Data API</text>
  <text x="354" y="374" text-anchor="middle" fill="#a78bfa" font-size="8">pipelines · runs · rules · profiles</text>

  <!-- SQS -->
  <rect x="490" y="328" width="90" height="56" rx="7" fill="#1c1c2a" stroke="#6366f1" stroke-width="1.5"/>
  <text x="535" y="348" text-anchor="middle" fill="#a5b4fc" font-size="10" font-weight="600">SQS</text>
  <text x="535" y="361" text-anchor="middle" fill="#818cf8" font-size="8">executor-queue</text>
  <text x="535" y="374" text-anchor="middle" fill="#818cf8" font-size="8">at-least-once</text>

  <!-- S3 Processed -->
  <rect x="660" y="328" width="96" height="56" rx="7" fill="#1c2a1c" stroke="#16a34a" stroke-width="1.5"/>
  <text x="708" y="348" text-anchor="middle" fill="#86efac" font-size="10" font-weight="600">S3 Processed</text>
  <text x="708" y="361" text-anchor="middle" fill="#4ade80" font-size="8">SSE-KMS</text>
  <text x="708" y="374" text-anchor="middle" fill="#4ade80" font-size="8">cleaned output</text>

  <!-- SNS -->
  <rect x="820" y="328" width="108" height="56" rx="7" fill="#1c2a2a" stroke="#0d9488" stroke-width="1.5"/>
  <text x="874" y="348" text-anchor="middle" fill="#5eead4" font-size="10" font-weight="600">SNS</text>
  <text x="874" y="361" text-anchor="middle" fill="#2dd4bf" font-size="8">drift-alerts topic</text>
  <text x="874" y="374" text-anchor="middle" fill="#2dd4bf" font-size="8">→ λ Drift</text>

  <!-- EventBridge -->
  <rect x="960" y="328" width="82" height="56" rx="7" fill="#1f1a10" stroke="#f59e0b" stroke-width="1.5"/>
  <text x="1001" y="345" text-anchor="middle" fill="#fcd34d" font-size="10" font-weight="600">EventBridge</text>
  <text x="1001" y="358" text-anchor="middle" fill="#fbbf24" font-size="8">every 5 min</text>
  <text x="1001" y="371" text-anchor="middle" fill="#fbbf24" font-size="8">→ Reconciler</text>

  <!-- DATA FLOW ARROWS — ROW 3 ↔ ROW 4 -->
  <!-- Browser presigned → S3 Raw -->
  <line x1="178" y1="100" x2="100" y2="328" stroke="#16a34a" stroke-width="1.2" stroke-dasharray="4,3" marker-end="url(#ag2)"/>
  <!-- S3 Raw → Lambda Profiler -->
  <line x1="134" y1="356" x2="154" y2="280" stroke="#d97706" stroke-width="1.5" marker-end="url(#ao)"/>
  <!-- Lambda Profiler → Aurora -->
  <line x1="260" y1="284" x2="330" y2="328" stroke="#7c3aed" stroke-width="1.2" stroke-dasharray="4,3" marker-end="url(#av)"/>
  <!-- Lambda Profiler → webhook → Next.js AI Routes -->
  <line x1="276" y1="260" x2="366" y2="206" stroke="#3b82f6" stroke-width="1.2" stroke-dasharray="4,3" marker-end="url(#ab)"/>
  <!-- Aurora → SQS (approve triggers) -->
  <line x1="414" y1="356" x2="486" y2="356" stroke="#6366f1" stroke-width="1.5" marker-end="url(#ai)"/>
  <!-- SQS → Lambda Executor -->
  <line x1="535" y1="328" x2="610" y2="296" stroke="#d97706" stroke-width="1.5" marker-end="url(#ao)"/>
  <!-- Lambda Executor → S3 Processed -->
  <line x1="680" y1="268" x2="714" y2="324" stroke="#16a34a" stroke-width="1.2" stroke-dasharray="4,3" marker-end="url(#ag2)"/>
  <!-- Lambda Executor → Aurora (re-profile) -->
  <line x1="600" y1="296" x2="414" y2="344" stroke="#7c3aed" stroke-width="1.2" stroke-dasharray="4,3" marker-end="url(#av)"/>
  <!-- Lambda Executor → SNS -->
  <line x1="698" y1="268" x2="850" y2="328" stroke="#0d9488" stroke-width="1.2" stroke-dasharray="4,3" marker-end="url(#at)"/>
  <!-- SNS → Lambda Drift -->
  <line x1="874" y1="328" x2="874" y2="296" stroke="#0d9488" stroke-width="1.5" marker-end="url(#at)"/>
  <!-- EventBridge → Reconciler (Next.js) -->
  <line x1="1001" y1="328" x2="988" y2="206" stroke="#f59e0b" stroke-width="1.5" stroke-dasharray="4,3" marker-end="url(#af)"/>
  <!-- Reconciler → SQS -->
  <line x1="933" y1="206" x2="580" y2="368" stroke="#6366f1" stroke-width="1.2" stroke-dasharray="4,3" marker-end="url(#ai)"/>

  <!-- ══════════════════════════════════════════════
       ROW 5 — AI / AMAZON BEDROCK
  ══════════════════════════════════════════════ -->

  <!-- Amazon Bedrock -->
  <rect x="186" y="416" width="520" height="42" rx="7" fill="#1a1631" stroke="#8b5cf6" stroke-width="1.5"/>
  <text x="446" y="434" text-anchor="middle" fill="#c4b5fd" font-size="11" font-weight="700">Amazon Bedrock — Claude Sonnet 4.6 (us.anthropic.claude-sonnet-4-6)</text>
  <text x="446" y="449" text-anchor="middle" fill="#a78bfa" font-size="8">suggest-transforms · AI committee (3× parallel: Safety Auditor, Statistician, Domain Validator) · Chat Builder streaming</text>

  <!-- Next.js AI Routes → Bedrock -->
  <line x1="444" y1="206" x2="420" y2="412" stroke="#8b5cf6" stroke-width="1.5" stroke-dasharray="5,3" marker-end="url(#apu)"/>
  <!-- Chat Builder → Bedrock -->
  <line x1="700" y1="206" x2="620" y2="412" stroke="#8b5cf6" stroke-width="1.2" stroke-dasharray="5,3" marker-end="url(#apu)"/>
  <!-- Bedrock → Aurora (rules written) -->
  <line x1="354" y1="416" x2="354" y2="384" stroke="#7c3aed" stroke-width="1.2" stroke-dasharray="4,3" marker-end="url(#av)"/>

  <!-- ══════════════════════════════════════════════
       ROW 6 — AUTO-CLEAN + KEY METRICS
  ══════════════════════════════════════════════ -->

  <!-- Auto-clean box -->
  <rect x="44" y="488" width="220" height="38" rx="7" fill="#1c2a1c" stroke="#10b981" stroke-width="1.5"/>
  <text x="154" y="504" text-anchor="middle" fill="#6ee7b7" font-size="10" font-weight="600">Auto-Clean (Phase 15+16)</text>
  <text x="154" y="517" text-anchor="middle" fill="#34d399" font-size="8">up to 3 passes · diminishing-returns stop (&lt;5% gain)</text>

  <!-- Billing / quota box -->
  <rect x="284" y="488" width="200" height="38" rx="7" fill="#1a1040" stroke="#7c3aed" stroke-width="1.5"/>
  <text x="384" y="504" text-anchor="middle" fill="#c4b5fd" font-size="10" font-weight="600">Row-based Billing</text>
  <text x="384" y="517" text-anchor="middle" fill="#a78bfa" font-size="8">Free 50K · Pro 1M · Team 10M rows/mo</text>

  <!-- Training Export box -->
  <rect x="504" y="488" width="200" height="38" rx="7" fill="#1e3a5f" stroke="#3b82f6" stroke-width="1.5"/>
  <text x="604" y="504" text-anchor="middle" fill="#93c5fd" font-size="10" font-weight="600">Training Export</text>
  <text x="604" y="517" text-anchor="middle" fill="#60a5fa" font-size="8">JSONL · Alpaca · Chat format</text>

  <!-- KMS / Security box -->
  <rect x="724" y="488" width="200" height="38" rx="7" fill="#1c2a1c" stroke="#16a34a" stroke-width="1.5"/>
  <text x="824" y="504" text-anchor="middle" fill="#86efac" font-size="10" font-weight="600">Security</text>
  <text x="824" y="517" text-anchor="middle" fill="#4ade80" font-size="8">S3 SSE-KMS · IAM roles · rate limiting</text>

  <!-- ══════════════════════════════════════════════
       LEGEND
  ══════════════════════════════════════════════ -->
  <rect x="28" y="548" width="1024" height="20" rx="4" fill="#111827"/>
  <text x="44" y="562" fill="#374151" font-size="9">─── Sync</text>
  <text x="108" y="562" fill="#374151" font-size="9">- - - Async</text>
  <text x="170" y="562" fill="#3b82f6" font-size="9">■ Vercel/Next.js</text>
  <text x="268" y="562" fill="#d97706" font-size="9">■ Lambda</text>
  <text x="334" y="562" fill="#7c3aed" font-size="9">■ Aurora PG</text>
  <text x="408" y="562" fill="#16a34a" font-size="9">■ S3</text>
  <text x="440" y="562" fill="#6366f1" font-size="9">■ SQS</text>
  <text x="476" y="562" fill="#0d9488" font-size="9">■ SNS/Drift</text>
  <text x="540" y="562" fill="#f59e0b" font-size="9">■ EventBridge</text>
  <text x="618" y="562" fill="#8b5cf6" font-size="9">■ Bedrock/Claude</text>
  <text x="710" y="562" fill="#a855f7" font-size="9">■ Clerk</text>
  <text x="754" y="562" fill="#10b981" font-size="9">■ Auto-Clean</text>
  <text x="836" y="562" fill="#6b7280" font-size="9">Tested across 17 industry domains · avg +18.1 quality pts</text>

  <!-- ══════════════════════════════════════════════
       ARROWHEAD DEFS
  ══════════════════════════════════════════════ -->
  <defs>
    <marker id="ag" markerWidth="6" markerHeight="6" refX="5" refY="3" orient="auto">
      <path d="M0,0 L0,6 L6,3 z" fill="#4b5563"/>
    </marker>
    <marker id="ag2" markerWidth="6" markerHeight="6" refX="5" refY="3" orient="auto">
      <path d="M0,0 L0,6 L6,3 z" fill="#16a34a"/>
    </marker>
    <marker id="ab" markerWidth="6" markerHeight="6" refX="5" refY="3" orient="auto">
      <path d="M0,0 L0,6 L6,3 z" fill="#3b82f6"/>
    </marker>
    <marker id="ao" markerWidth="6" markerHeight="6" refX="5" refY="3" orient="auto">
      <path d="M0,0 L0,6 L6,3 z" fill="#d97706"/>
    </marker>
    <marker id="av" markerWidth="6" markerHeight="6" refX="5" refY="3" orient="auto">
      <path d="M0,0 L0,6 L6,3 z" fill="#7c3aed"/>
    </marker>
    <marker id="ai" markerWidth="6" markerHeight="6" refX="5" refY="3" orient="auto">
      <path d="M0,0 L0,6 L6,3 z" fill="#6366f1"/>
    </marker>
    <marker id="at" markerWidth="6" markerHeight="6" refX="5" refY="3" orient="auto">
      <path d="M0,0 L0,6 L6,3 z" fill="#0d9488"/>
    </marker>
    <marker id="apu" markerWidth="6" markerHeight="6" refX="5" refY="3" orient="auto">
      <path d="M0,0 L0,6 L6,3 z" fill="#8b5cf6"/>
    </marker>
    <marker id="ap" markerWidth="6" markerHeight="6" refX="5" refY="3" orient="auto">
      <path d="M0,0 L0,6 L6,3 z" fill="#a855f7"/>
    </marker>
    <marker id="af" markerWidth="6" markerHeight="6" refX="5" refY="3" orient="auto">
      <path d="M0,0 L0,6 L6,3 z" fill="#f59e0b"/>
    </marker>
  </defs>
</svg>
