<svg xmlns="http://www.w3.org/2000/svg" viewBox="0 0 1200 640" width="1200" height="640" font-family="'Segoe UI', system-ui, -apple-system, sans-serif">
  <defs>
    <!-- Arrow markers -->
    <marker id="a-gray" markerWidth="7" markerHeight="7" refX="6" refY="3.5" orient="auto"><path d="M0,0 L0,7 L7,3.5 z" fill="#4b5563"/></marker>
    <marker id="a-blue" markerWidth="7" markerHeight="7" refX="6" refY="3.5" orient="auto"><path d="M0,0 L0,7 L7,3.5 z" fill="#3b82f6"/></marker>
    <marker id="a-orange" markerWidth="7" markerHeight="7" refX="6" refY="3.5" orient="auto"><path d="M0,0 L0,7 L7,3.5 z" fill="#f97316"/></marker>
    <marker id="a-purple" markerWidth="7" markerHeight="7" refX="6" refY="3.5" orient="auto"><path d="M0,0 L0,7 L7,3.5 z" fill="#8b5cf6"/></marker>
    <marker id="a-green" markerWidth="7" markerHeight="7" refX="6" refY="3.5" orient="auto"><path d="M0,0 L0,7 L7,3.5 z" fill="#22c55e"/></marker>
    <marker id="a-teal" markerWidth="7" markerHeight="7" refX="6" refY="3.5" orient="auto"><path d="M0,0 L0,7 L7,3.5 z" fill="#14b8a6"/></marker>
    <marker id="a-amber" markerWidth="7" markerHeight="7" refX="6" refY="3.5" orient="auto"><path d="M0,0 L0,7 L7,3.5 z" fill="#f59e0b"/></marker>
    <marker id="a-pink" markerWidth="7" markerHeight="7" refX="6" refY="3.5" orient="auto"><path d="M0,0 L0,7 L7,3.5 z" fill="#ec4899"/></marker>
  </defs>

  <!-- Canvas background -->
  <rect width="1200" height="640" fill="#0b0d14"/>

  <!-- ─────────────────────────────────────────────
       TITLE
  ───────────────────────────────────────────── -->
  <text x="600" y="30" text-anchor="middle" fill="#f1f5f9" font-size="16" font-weight="700" letter-spacing="0.5">CleanStack — System Architecture</text>
  <text x="600" y="50" text-anchor="middle" fill="#475569" font-size="10">Vercel · Aurora PostgreSQL · Lambda · S3 · SQS · SNS · Bedrock · EventBridge · Clerk · Sentry · Upstash Redis · KMS · CloudTrail</text>

  <!-- ─────────────────────────────────────────────
       SECTION PANELS
  ───────────────────────────────────────────── -->
  <!-- Client & Auth -->
  <rect x="14" y="66" width="218" height="148" rx="10" fill="#12121e" stroke="#312e81" stroke-width="1.5"/>
  <text x="123" y="82" text-anchor="middle" fill="#6366f1" font-size="9" font-weight="700" letter-spacing="1">CLIENT &amp; AUTH</text>

  <!-- Vercel -->
  <rect x="244" y="66" width="370" height="148" rx="10" fill="#0a1628" stroke="#1e40af" stroke-width="1.5"/>
  <text x="429" y="82" text-anchor="middle" fill="#60a5fa" font-size="9" font-weight="700" letter-spacing="1">VERCEL — NEXT.JS 15</text>

  <!-- Observability -->
  <rect x="626" y="66" width="270" height="148" rx="10" fill="#111118" stroke="#374151" stroke-width="1.5"/>
  <text x="761" y="82" text-anchor="middle" fill="#6b7280" font-size="9" font-weight="700" letter-spacing="1">OBSERVABILITY</text>

  <!-- Security -->
  <rect x="908" y="66" width="278" height="148" rx="10" fill="#130a0a" stroke="#7f1d1d" stroke-width="1.5"/>
  <text x="1047" y="82" text-anchor="middle" fill="#f87171" font-size="9" font-weight="700" letter-spacing="1">SECURITY</text>

  <!-- AWS Core Pipeline -->
  <rect x="14" y="232" width="1172" height="124" rx="10" fill="#0a150a" stroke="#166534" stroke-width="1.5"/>
  <text x="600" y="248" text-anchor="middle" fill="#4ade80" font-size="9" font-weight="700" letter-spacing="1">AWS CORE PIPELINE</text>

  <!-- AI & Scheduling -->
  <rect x="14" y="374" width="618" height="110" rx="10" fill="#100d1f" stroke="#5b21b6" stroke-width="1.5"/>
  <text x="323" y="390" text-anchor="middle" fill="#a78bfa" font-size="9" font-weight="700" letter-spacing="1">AI — AMAZON BEDROCK</text>

  <!-- Alerts -->
  <rect x="644" y="374" width="350" height="110" rx="10" fill="#0a1a14" stroke="#065f46" stroke-width="1.5"/>
  <text x="819" y="390" text-anchor="middle" fill="#34d399" font-size="9" font-weight="700" letter-spacing="1">ALERTS</text>

  <!-- Scheduling -->
  <rect x="1006" y="374" width="180" height="110" rx="10" fill="#1a1208" stroke="#92400e" stroke-width="1.5"/>
  <text x="1096" y="390" text-anchor="middle" fill="#fbbf24" font-size="9" font-weight="700" letter-spacing="1">SCHEDULE</text>

  <!-- ─────────────────────────────────────────────
       ROW 1 — CLIENT / VERCEL / OBSERVABILITY / SECURITY
  ───────────────────────────────────────────── -->

  <!-- Browser -->
  <rect x="24" y="90" width="96" height="56" rx="7" fill="#1e1b4b" stroke="#4338ca" stroke-width="1.5"/>
  <circle cx="42" cy="110" r="8" fill="#4338ca"/>
  <text x="42" y="114" text-anchor="middle" fill="#fff" font-size="8" font-weight="700">B</text>
  <text x="84" y="109" text-anchor="middle" fill="#e0e7ff" font-size="10" font-weight="600">Browser</text>
  <text x="84" y="123" text-anchor="middle" fill="#818cf8" font-size="8">User actions</text>

  <!-- Clerk -->
  <rect x="130" y="90" width="96" height="56" rx="7" fill="#1e1040" stroke="#7c3aed" stroke-width="1.5"/>
  <circle cx="148" cy="110" r="8" fill="#7c3aed"/>
  <text x="148" y="114" text-anchor="middle" fill="#fff" font-size="8" font-weight="700">C</text>
  <text x="190" y="109" text-anchor="middle" fill="#ddd6fe" font-size="10" font-weight="600">Clerk</text>
  <text x="190" y="123" text-anchor="middle" fill="#a78bfa" font-size="8">JWT · Middleware</text>

  <!-- Next.js box -->
  <rect x="254" y="90" width="350" height="112" rx="7" fill="#0d2045" stroke="#2563eb" stroke-width="1.5"/>
  <rect x="254" y="90" width="6" height="112" rx="3" fill="#2563eb"/>
  <text x="296" y="108" fill="#93c5fd" font-size="11" font-weight="700">Next.js API Routes</text>
  <text x="270" y="124" fill="#60a5fa" font-size="8">▸ /api/upload  · /api/pipelines</text>
  <text x="270" y="138" fill="#60a5fa" font-size="8">▸ /api/suggest-transforms  · /api/auto-validate</text>
  <text x="270" y="152" fill="#60a5fa" font-size="8">▸ /api/approve-rules  · /api/chat-builder (SSE)</text>
  <text x="270" y="166" fill="#60a5fa" font-size="8">▸ /api/reconciler  · /webhooks/profile-done</text>
  <text x="270" y="180" fill="#3b82f6" font-size="8">▸ Vercel AI SDK · maxDuration=120</text>

  <!-- Sentry -->
  <rect x="636" y="90" width="120" height="56" rx="7" fill="#1e0a2e" stroke="#9333ea" stroke-width="1.5"/>
  <rect x="636" y="90" width="5" height="56" rx="2" fill="#9333ea"/>
  <text x="706" y="109" text-anchor="middle" fill="#d8b4fe" font-size="10" font-weight="600">Sentry</text>
  <text x="706" y="123" text-anchor="middle" fill="#a855f7" font-size="8">Error monitoring</text>
  <text x="706" y="136" text-anchor="middle" fill="#a855f7" font-size="8">@sentry/nextjs v10</text>

  <!-- Upstash Redis -->
  <rect x="768" y="90" width="120" height="56" rx="7" fill="#002a1a" stroke="#059669" stroke-width="1.5"/>
  <rect x="768" y="90" width="5" height="56" rx="2" fill="#059669"/>
  <text x="838" y="109" text-anchor="middle" fill="#6ee7b7" font-size="10" font-weight="600">Upstash Redis</text>
  <text x="838" y="123" text-anchor="middle" fill="#34d399" font-size="8">Rate limiting</text>
  <text x="838" y="136" text-anchor="middle" fill="#34d399" font-size="8">Quota cache (60s TTL)</text>

  <!-- KMS -->
  <rect x="918" y="90" width="110" height="56" rx="7" fill="#1f0a0a" stroke="#dc2626" stroke-width="1.5"/>
  <rect x="918" y="90" width="5" height="56" rx="2" fill="#dc2626"/>
  <text x="978" y="109" text-anchor="middle" fill="#fca5a5" font-size="10" font-weight="600">AWS KMS</text>
  <text x="978" y="123" text-anchor="middle" fill="#f87171" font-size="8">S3 SSE-KMS</text>
  <text x="978" y="136" text-anchor="middle" fill="#f87171" font-size="8">Encryption at rest</text>

  <!-- CloudTrail -->
  <rect x="1042" y="90" width="138" height="56" rx="7" fill="#1f0a0a" stroke="#b91c1c" stroke-width="1.5"/>
  <rect x="1042" y="90" width="5" height="56" rx="2" fill="#b91c1c"/>
  <text x="1116" y="109" text-anchor="middle" fill="#fca5a5" font-size="10" font-weight="600">CloudTrail</text>
  <text x="1116" y="123" text-anchor="middle" fill="#f87171" font-size="8">API audit logging</text>
  <text x="1116" y="136" text-anchor="middle" fill="#f87171" font-size="8">All AWS API calls</text>

  <!-- ─────────────────────────────────────────────
       ROW 2 — AWS CORE PIPELINE
  ───────────────────────────────────────────── -->

  <!-- S3 Raw -->
  <rect x="24" y="254" width="120" height="84" rx="7" fill="#0a2010" stroke="#16a34a" stroke-width="1.5"/>
  <rect x="24" y="254" width="5" height="84" rx="2" fill="#16a34a"/>
  <text x="84" y="274" text-anchor="middle" fill="#86efac" font-size="10" font-weight="700">S3 Raw</text>
  <text x="84" y="289" text-anchor="middle" fill="#4ade80" font-size="8">SSE-KMS encrypted</text>
  <text x="84" y="302" text-anchor="middle" fill="#4ade80" font-size="8">Presigned PUT</text>
  <text x="84" y="315" text-anchor="middle" fill="#4ade80" font-size="8">cleanstack-raw-*</text>

  <!-- Lambda Profiler -->
  <rect x="158" y="254" width="136" height="84" rx="7" fill="#1e1208" stroke="#f97316" stroke-width="1.5"/>
  <rect x="158" y="254" width="5" height="84" rx="2" fill="#f97316"/>
  <text x="226" y="274" text-anchor="middle" fill="#fed7aa" font-size="10" font-weight="700">λ Profiler</text>
  <text x="226" y="289" text-anchor="middle" fill="#fb923c" font-size="8">S3 PUT trigger</text>
  <text x="226" y="302" text-anchor="middle" fill="#fb923c" font-size="8">9 formats · quality score</text>
  <text x="226" y="315" text-anchor="middle" fill="#fb923c" font-size="8">0–100 scoring model</text>

  <!-- Aurora PG -->
  <rect x="308" y="254" width="148" height="84" rx="7" fill="#0d0a28" stroke="#7c3aed" stroke-width="1.5"/>
  <rect x="308" y="254" width="5" height="84" rx="2" fill="#7c3aed"/>
  <text x="382" y="274" text-anchor="middle" fill="#ddd6fe" font-size="10" font-weight="700">Aurora PG</text>
  <text x="382" y="289" text-anchor="middle" fill="#a78bfa" font-size="8">RDS Data API (HTTP)</text>
  <text x="382" y="302" text-anchor="middle" fill="#a78bfa" font-size="8">pipelines · runs · rules</text>
  <text x="382" y="315" text-anchor="middle" fill="#a78bfa" font-size="8">profiles · subscriptions</text>

  <!-- SQS -->
  <rect x="470" y="254" width="116" height="84" rx="7" fill="#0a0a28" stroke="#6366f1" stroke-width="1.5"/>
  <rect x="470" y="254" width="5" height="84" rx="2" fill="#6366f1"/>
  <text x="528" y="274" text-anchor="middle" fill="#c7d2fe" font-size="10" font-weight="700">SQS</text>
  <text x="528" y="289" text-anchor="middle" fill="#818cf8" font-size="8">executor-queue</text>
  <text x="528" y="302" text-anchor="middle" fill="#818cf8" font-size="8">at-least-once</text>
  <text x="528" y="315" text-anchor="middle" fill="#818cf8" font-size="8">post-approval trigger</text>

  <!-- Lambda Executor -->
  <rect x="600" y="254" width="150" height="84" rx="7" fill="#1e1208" stroke="#f97316" stroke-width="1.5"/>
  <rect x="600" y="254" width="5" height="84" rx="2" fill="#f97316"/>
  <text x="675" y="274" text-anchor="middle" fill="#fed7aa" font-size="10" font-weight="700">λ Executor</text>
  <text x="675" y="289" text-anchor="middle" fill="#fb923c" font-size="8">SQS trigger · pandas</text>
  <text x="675" y="302" text-anchor="middle" fill="#fb923c" font-size="8">Apply transforms</text>
  <text x="675" y="315" text-anchor="middle" fill="#fb923c" font-size="8">Schema drift detection</text>

  <!-- S3 Processed -->
  <rect x="764" y="254" width="136" height="84" rx="7" fill="#0a2010" stroke="#16a34a" stroke-width="1.5"/>
  <rect x="764" y="254" width="5" height="84" rx="2" fill="#16a34a"/>
  <text x="832" y="274" text-anchor="middle" fill="#86efac" font-size="10" font-weight="700">S3 Processed</text>
  <text x="832" y="289" text-anchor="middle" fill="#4ade80" font-size="8">SSE-KMS encrypted</text>
  <text x="832" y="302" text-anchor="middle" fill="#4ade80" font-size="8">Cleaned output</text>
  <text x="832" y="315" text-anchor="middle" fill="#4ade80" font-size="8">Presigned GET</text>

  <!-- SNS -->
  <rect x="914" y="254" width="120" height="84" rx="7" fill="#0a1a14" stroke="#14b8a6" stroke-width="1.5"/>
  <rect x="914" y="254" width="5" height="84" rx="2" fill="#14b8a6"/>
  <text x="974" y="274" text-anchor="middle" fill="#99f6e4" font-size="10" font-weight="700">SNS</text>
  <text x="974" y="289" text-anchor="middle" fill="#2dd4bf" font-size="8">drift-alerts topic</text>
  <text x="974" y="302" text-anchor="middle" fill="#2dd4bf" font-size="8">Fan-out to Lambda</text>
  <text x="974" y="315" text-anchor="middle" fill="#2dd4bf" font-size="8">+ email subscription</text>

  <!-- Lambda Drift -->
  <rect x="1048" y="254" width="132" height="84" rx="7" fill="#1e1208" stroke="#f97316" stroke-width="1.5"/>
  <rect x="1048" y="254" width="5" height="84" rx="2" fill="#f97316"/>
  <text x="1114" y="274" text-anchor="middle" fill="#fed7aa" font-size="10" font-weight="700">λ Drift Alert</text>
  <text x="1114" y="289" text-anchor="middle" fill="#fb923c" font-size="8">SNS trigger</text>
  <text x="1114" y="302" text-anchor="middle" fill="#fb923c" font-size="8">Schema hash compare</text>
  <text x="1114" y="315" text-anchor="middle" fill="#fb923c" font-size="8">→ Slack webhook</text>

  <!-- ─────────────────────────────────────────────
       ROW 3 — AI / ALERTS / SCHEDULING
  ───────────────────────────────────────────── -->

  <!-- Bedrock -->
  <rect x="24" y="396" width="598" height="76" rx="7" fill="#150d30" stroke="#7c3aed" stroke-width="1.5"/>
  <rect x="24" y="396" width="5" height="76" rx="2" fill="#7c3aed"/>
  <text x="60" y="418" fill="#ddd6fe" font-size="11" font-weight="700">Amazon Bedrock — Claude Sonnet 4.6</text>
  <text x="60" y="434" fill="#a78bfa" font-size="8">us.anthropic.claude-sonnet-4-6</text>
  <text x="60" y="450" fill="#8b5cf6" font-size="8">▸ suggest-transforms (structured JSON rules)</text>
  <text x="60" y="462" fill="#8b5cf6" font-size="8">▸ AI committee: Safety Auditor · Statistician · Domain Validator (3× parallel)</text>
  <text x="330" y="450" fill="#8b5cf6" font-size="8">▸ Chat Builder streaming (SSE via Vercel AI SDK)</text>
  <text x="330" y="462" fill="#8b5cf6" font-size="8">▸ Row-based metered: Free 50K · Pro 1M · Team 10M rows/mo</text>

  <!-- Slack -->
  <rect x="654" y="396" width="160" height="76" rx="7" fill="#0e0e1f" stroke="#4f46e5" stroke-width="1.5"/>
  <rect x="654" y="396" width="5" height="76" rx="2" fill="#4f46e5"/>
  <text x="734" y="418" text-anchor="middle" fill="#c7d2fe" font-size="10" font-weight="700">Slack</text>
  <text x="734" y="434" text-anchor="middle" fill="#818cf8" font-size="8">Incoming webhook</text>
  <text x="734" y="448" text-anchor="middle" fill="#818cf8" font-size="8">Schema drift alerts</text>
  <text x="734" y="462" text-anchor="middle" fill="#818cf8" font-size="8">Real-time notifications</text>

  <!-- Auto-Clean note -->
  <rect x="828" y="396" width="160" height="76" rx="7" fill="#0a1a0a" stroke="#16a34a" stroke-width="1.5"/>
  <rect x="828" y="396" width="5" height="76" rx="2" fill="#16a34a"/>
  <text x="908" y="418" text-anchor="middle" fill="#86efac" font-size="10" font-weight="700">Auto-Clean</text>
  <text x="908" y="434" text-anchor="middle" fill="#4ade80" font-size="8">Up to 3 passes</text>
  <text x="908" y="448" text-anchor="middle" fill="#4ade80" font-size="8">Diminishing-returns stop</text>
  <text x="908" y="462" text-anchor="middle" fill="#4ade80" font-size="8">(&lt;5% gain threshold)</text>

  <!-- EventBridge -->
  <rect x="1016" y="396" width="164" height="76" rx="7" fill="#1a1000" stroke="#d97706" stroke-width="1.5"/>
  <rect x="1016" y="396" width="5" height="76" rx="2" fill="#d97706"/>
  <text x="1098" y="418" text-anchor="middle" fill="#fde68a" font-size="10" font-weight="700">EventBridge</text>
  <text x="1098" y="434" text-anchor="middle" fill="#fbbf24" font-size="8">Cron: every 5 min</text>
  <text x="1098" y="448" text-anchor="middle" fill="#fbbf24" font-size="8">→ /api/reconciler</text>
  <text x="1098" y="462" text-anchor="middle" fill="#fbbf24" font-size="8">Stuck run recovery</text>

  <!-- ─────────────────────────────────────────────
       ARROWS — ROW 1
  ───────────────────────────────────────────── -->
  <!-- Browser → Next.js -->
  <line x1="120" y1="118" x2="250" y2="118" stroke="#6366f1" stroke-width="1.5" marker-end="url(#a-blue)"/>
  <text x="185" y="113" text-anchor="middle" fill="#4b5563" font-size="7">API calls</text>

  <!-- Clerk → Next.js (auth guard) -->
  <line x1="226" y1="118" x2="250" y2="118" stroke="#7c3aed" stroke-width="1.5" marker-end="url(#a-purple)"/>

  <!-- Next.js ↔ Upstash Redis -->
  <line x1="604" y1="118" x2="764" y2="118" stroke="#059669" stroke-width="1.2" stroke-dasharray="4,3" marker-end="url(#a-green)"/>
  <text x="684" y="113" text-anchor="middle" fill="#4b5563" font-size="7">rate limit / cache</text>

  <!-- Next.js → Sentry (errors) -->
  <line x1="604" y1="105" x2="632" y2="105" stroke="#9333ea" stroke-width="1.2" stroke-dasharray="4,3" marker-end="url(#a-purple)"/>
  <text x="618" y="100" text-anchor="middle" fill="#4b5563" font-size="7">errors</text>

  <!-- ─────────────────────────────────────────────
       ARROWS — ROW 1 → ROW 2
  ───────────────────────────────────────────── -->
  <!-- Browser → S3 Raw (presigned PUT, diagonal) -->
  <path d="M 72 146 Q 72 200 80 254" stroke="#16a34a" stroke-width="1.2" stroke-dasharray="5,3" fill="none" marker-end="url(#a-green)"/>
  <text x="56" y="200" fill="#4b5563" font-size="7" text-anchor="middle">presigned</text>
  <text x="56" y="210" fill="#4b5563" font-size="7" text-anchor="middle">PUT</text>

  <!-- Next.js → Aurora (read/write) -->
  <path d="M 382 202 L 382 254" stroke="#7c3aed" stroke-width="1.5" fill="none" marker-end="url(#a-purple)"/>
  <text x="398" y="232" fill="#4b5563" font-size="7">read/write</text>

  <!-- Next.js → SQS (approve) -->
  <path d="M 528 202 L 528 254" stroke="#6366f1" stroke-width="1.5" stroke-dasharray="4,3" fill="none" marker-end="url(#a-blue)"/>
  <text x="546" y="232" fill="#4b5563" font-size="7">on approve</text>

  <!-- ─────────────────────────────────────────────
       ARROWS — ROW 2 HORIZONTAL (pipeline)
  ───────────────────────────────────────────── -->
  <!-- S3 Raw → λ Profiler -->
  <line x1="144" y1="296" x2="154" y2="296" stroke="#f97316" stroke-width="2" marker-end="url(#a-orange)"/>
  <text x="149" y="290" text-anchor="middle" fill="#4b5563" font-size="7">trigger</text>

  <!-- λ Profiler → Aurora -->
  <line x1="294" y1="296" x2="304" y2="296" stroke="#7c3aed" stroke-width="2" marker-end="url(#a-purple)"/>
  <text x="299" y="290" text-anchor="middle" fill="#4b5563" font-size="7">profile</text>

  <!-- Aurora → SQS -->
  <line x1="456" y1="296" x2="466" y2="296" stroke="#6366f1" stroke-width="2" marker-end="url(#a-blue)"/>
  <text x="461" y="290" text-anchor="middle" fill="#4b5563" font-size="7">queue</text>

  <!-- SQS → λ Executor -->
  <line x1="586" y1="296" x2="596" y2="296" stroke="#f97316" stroke-width="2" marker-end="url(#a-orange)"/>
  <text x="591" y="290" text-anchor="middle" fill="#4b5563" font-size="7">trigger</text>

  <!-- λ Executor → S3 Processed -->
  <line x1="750" y1="296" x2="760" y2="296" stroke="#16a34a" stroke-width="2" marker-end="url(#a-green)"/>
  <text x="755" y="290" text-anchor="middle" fill="#4b5563" font-size="7">write</text>

  <!-- S3 Processed → SNS (drift) -->
  <line x1="900" y1="296" x2="910" y2="296" stroke="#14b8a6" stroke-width="2" marker-end="url(#a-teal)"/>
  <text x="905" y="290" text-anchor="middle" fill="#4b5563" font-size="7">drift</text>

  <!-- SNS → λ Drift -->
  <line x1="1034" y1="296" x2="1044" y2="296" stroke="#f97316" stroke-width="2" marker-end="url(#a-orange)"/>
  <text x="1039" y="290" text-anchor="middle" fill="#4b5563" font-size="7">invoke</text>

  <!-- ─────────────────────────────────────────────
       ARROWS — ROW 2 → ROW 3 (vertical downs)
  ───────────────────────────────────────────── -->
  <!-- λ Profiler → Next.js (webhook up) -->
  <path d="M 226 254 Q 226 210 429 202" stroke="#3b82f6" stroke-width="1.2" stroke-dasharray="4,3" fill="none" marker-end="url(#a-blue)"/>
  <text x="290" y="222" fill="#4b5563" font-size="7">webhook → suggest-transforms</text>

  <!-- λ Executor → Aurora (re-profile) -->
  <path d="M 660 338 Q 660 360 382 338" stroke="#7c3aed" stroke-width="1.2" stroke-dasharray="4,3" fill="none" marker-end="url(#a-purple)"/>
  <text x="520" y="354" text-anchor="middle" fill="#4b5563" font-size="7">re-profile write</text>

  <!-- Next.js → Bedrock (AI calls) -->
  <path d="M 429 202 L 429 374 L 250 374 L 250 396" stroke="#8b5cf6" stroke-width="1.5" stroke-dasharray="5,3" fill="none" marker-end="url(#a-purple)"/>
  <text x="330" y="370" text-anchor="middle" fill="#4b5563" font-size="7">AI calls (suggest · committee · chat)</text>

  <!-- λ Drift → Slack -->
  <path d="M 1114 338 Q 1114 370 834 438" stroke="#4f46e5" stroke-width="1.2" stroke-dasharray="5,3" fill="none" marker-end="url(#a-blue)"/>
  <text x="980" y="395" text-anchor="middle" fill="#4b5563" font-size="7">Slack webhook</text>

  <!-- EventBridge → Next.js (reconciler) -->
  <path d="M 1098 374 Q 1098 220 604 160" stroke="#d97706" stroke-width="1.2" stroke-dasharray="5,3" fill="none" marker-end="url(#a-amber)"/>
  <text x="890" y="255" text-anchor="middle" fill="#4b5563" font-size="7">5-min reconciler</text>

  <!-- ─────────────────────────────────────────────
       LEGEND
  ───────────────────────────────────────────── -->
  <rect x="14" y="504" width="1172" height="28" rx="5" fill="#111318"/>
  <text x="30" y="522" fill="#374151" font-size="8">─── Sync</text>
  <text x="90" y="522" fill="#374151" font-size="8">- - - Async / background</text>
  <text x="210" y="522" fill="#f97316" font-size="8">■ Lambda (Python 3.12)</text>
  <text x="330" y="522" fill="#7c3aed" font-size="8">■ Aurora PostgreSQL (RDS Data API)</text>
  <text x="520" y="522" fill="#16a34a" font-size="8">■ S3 (SSE-KMS)</text>
  <text x="610" y="522" fill="#6366f1" font-size="8">■ SQS</text>
  <text x="648" y="522" fill="#14b8a6" font-size="8">■ SNS</text>
  <text x="686" y="522" fill="#8b5cf6" font-size="8">■ Bedrock / Claude</text>
  <text x="790" y="522" fill="#d97706" font-size="8">■ EventBridge</text>
  <text x="862" y="522" fill="#3b82f6" font-size="8">■ Vercel / Next.js</text>
  <text x="948" y="522" fill="#dc2626" font-size="8">■ KMS · CloudTrail</text>
  <text x="1050" y="522" fill="#059669" font-size="8">■ Upstash Redis</text>
  <text x="1140" y="522" fill="#9333ea" font-size="8">■ Sentry</text>

  <!-- Bottom tagline -->
  <text x="600" y="560" text-anchor="middle" fill="#1f2937" font-size="9">Tested across 17 industry domains · avg +18.1 quality score improvement · row-based metered billing · EventBridge reconciler every 5 min</text>
</svg>
